<svg width="32" height="32" viewBox="0 0 32 32" fill="none" xmlns="http://www.w3.org/2000/svg">
<path d="M16 19C18.2091 19 20 17.2091 20 15C20 12.7909 18.2091 11 16 11C13.7909 11 12 12.7909 12 15C12 17.2091 13.7909 19 16 19Z" stroke="white" stroke-width="1.5" stroke-linecap="round" stroke-linejoin="round"/>
<path d="M26 15C26 24 16 31 16 31C16 31 6 24 6 15C6 12.3478 7.05357 9.8043 8.92893 7.92893C10.8043 6.05357 13.3478 5 16 5C18.6522 5 21.1957 6.05357 23.0711 7.92893C24.9464 9.8043 26 12.3478 26 15V15Z" stroke="white" stroke-width="1.5" stroke-linecap="round" stroke-linejoin="round"/>
</svg>
