<svg width="25" height="25" viewBox="0 0 25 25" fill="none" xmlns="http://www.w3.org/2000/svg">
<path d="M9.03089 11.5324C9.84127 13.1892 11.1842 14.5261 12.8447 15.3289C12.9662 15.3865 13.1006 15.4114 13.2346 15.4013C13.3687 15.3911 13.4978 15.3462 13.6092 15.2711L16.0541 13.6408C16.1622 13.5686 16.2866 13.5247 16.4161 13.5128C16.5455 13.5009 16.6758 13.5215 16.7953 13.5727L21.3692 15.5329C21.5246 15.5989 21.6543 15.7136 21.7388 15.8598C21.8233 16.0059 21.8581 16.1755 21.8378 16.3431C21.6932 17.4744 21.1413 18.5142 20.2853 19.2678C19.4293 20.0214 18.328 20.4371 17.1875 20.4372C13.6651 20.4372 10.287 19.0379 7.79624 16.5472C5.30552 14.0565 3.90625 10.6783 3.90625 7.15593C3.90631 6.01548 4.32206 4.91415 5.07567 4.05816C5.82927 3.20216 6.86904 2.65021 8.00029 2.50564C8.16788 2.48536 8.33753 2.52009 8.48366 2.60461C8.6298 2.68912 8.74451 2.81884 8.81052 2.97422L10.7725 7.55213C10.8232 7.67055 10.8439 7.79967 10.8327 7.92801C10.8214 8.05634 10.7786 8.17991 10.7081 8.28771L9.08345 10.7701C9.0095 10.8818 8.96579 11.0107 8.95658 11.1443C8.94736 11.2779 8.97297 11.4117 9.03089 11.5324V11.5324Z" stroke="#303942" stroke-width="1.5" stroke-linecap="round" stroke-linejoin="round"/>
</svg>
