<svg width="30" height="30" viewBox="0 0 30 30" fill="none" xmlns="http://www.w3.org/2000/svg">
<path d="M10.8371 13.8389C11.8095 15.827 13.4211 17.4313 15.4136 18.3947C15.5594 18.4638 15.7207 18.4937 15.8815 18.4815C16.0424 18.4694 16.1973 18.4155 16.3311 18.3253L19.2649 16.3689C19.3947 16.2824 19.544 16.2296 19.6993 16.2153C19.8546 16.2011 20.011 16.2258 20.1543 16.2872L25.643 18.6395C25.8295 18.7187 25.9852 18.8564 26.0866 19.0317C26.188 19.2071 26.2297 19.4107 26.2054 19.6118C26.0319 20.9693 25.3695 22.217 24.3423 23.1213C23.3151 24.0256 21.9935 24.5245 20.625 24.5246C16.3981 24.5246 12.3443 22.8455 9.35549 19.8566C6.36662 16.8678 4.6875 12.814 4.6875 8.58712C4.68757 7.21857 5.18648 5.89698 6.0908 4.86979C6.99512 3.8426 8.24285 3.18025 9.60035 3.00677C9.80146 2.98243 10.005 3.02411 10.1804 3.12553C10.3558 3.22695 10.4934 3.38261 10.5726 3.56906L12.927 9.06256C12.9879 9.20466 13.0127 9.3596 12.9992 9.51361C12.9857 9.66761 12.9344 9.8159 12.8497 9.94525L10.9001 12.9241C10.8114 13.0581 10.7589 13.2129 10.7479 13.3732C10.7368 13.5335 10.7676 13.694 10.8371 13.8389V13.8389Z" stroke="white" stroke-width="1.5" stroke-linecap="round" stroke-linejoin="round"/>
</svg>
